<svg xmlns="http://www.w3.org/2000/svg" viewBox="0 0 1200 780" width="1200" height="780" font-family="Noto Sans KR, sans-serif">
<rect width="1200" height="780" fill="#FBF8F2"/>
<text x="60" y="80" font-size="44" font-weight="700" fill="#4a4038">창문 해먹 안전하게 다는 법</text>
<rect x="70" y="140" width="560" height="540" rx="10" fill="#D9CDB8"/>
<rect x="96" y="166" width="508" height="488" rx="4" fill="#DCEAF1"/>
<circle cx="540" cy="230" r="34" fill="#E0A64E" fill-opacity="0.55"/>
<line x1="582" y1="230" x2="598" y2="230" stroke="#E0A64E" stroke-width="4" stroke-linecap="round"/>
<line x1="570" y1="260" x2="581" y2="271" stroke="#E0A64E" stroke-width="4" stroke-linecap="round"/>
<line x1="540" y1="272" x2="540" y2="288" stroke="#E0A64E" stroke-width="4" stroke-linecap="round"/>
<line x1="510" y1="260" x2="499" y2="271" stroke="#E0A64E" stroke-width="4" stroke-linecap="round"/>
<line x1="498" y1="230" x2="482" y2="230" stroke="#E0A64E" stroke-width="4" stroke-linecap="round"/>
<line x1="510" y1="200" x2="499" y2="189" stroke="#E0A64E" stroke-width="4" stroke-linecap="round"/>
<line x1="540" y1="188" x2="540" y2="172" stroke="#E0A64E" stroke-width="4" stroke-linecap="round"/>
<line x1="570" y1="200" x2="581" y2="189" stroke="#E0A64E" stroke-width="4" stroke-linecap="round"/>
<path d="M 140 530 Q 325.0 646 510 530" fill="#C08A5E" fill-opacity="0.25" stroke="#C08A5E" stroke-width="5"/>
<circle cx="140" cy="530" r="13" fill="#FFFFFF" stroke="#C08A5E" stroke-width="4"/>
<circle cx="510" cy="530" r="13" fill="#FFFFFF" stroke="#C08A5E" stroke-width="4"/>
<ellipse cx="325.0" cy="560" rx="90" ry="34" fill="#C08A5E" fill-opacity="0.55"/>
<circle cx="134" cy="600" r="17" fill="#6E9E5E"/><path d="M 126 600 L 132 607 L 142 593" stroke="#fff" stroke-width="4" fill="none" stroke-linecap="round" stroke-linejoin="round"/>
<text x="96" y="682" font-size="23" fill="#8a8378">낮은 높이 · 매끈한 유리에 흡착</text>
<rect x="680" y="160" width="450" height="520" rx="20" fill="#FFFFFF" stroke="#E6DFD2" stroke-width="2"/>
<circle cx="724" cy="218" r="18" fill="#6E9E5E"/>
<path d="M 715 218 L 722 226 L 733 211" stroke="#fff" stroke-width="4" fill="none" stroke-linecap="round" stroke-linejoin="round"/>
<text x="760" y="226" font-size="25" fill="#4a4038">붙이기 전 유리의 먼지·기름기 닦기</text>
<circle cx="724" cy="294" r="18" fill="#6E9E5E"/>
<path d="M 715 294 L 722 302 L 733 287" stroke="#fff" stroke-width="4" fill="none" stroke-linecap="round" stroke-linejoin="round"/>
<text x="760" y="302" font-size="25" fill="#4a4038">낮은 높이부터 · 떨어져도 안 다치게</text>
<circle cx="724" cy="370" r="18" fill="#6E9E5E"/>
<path d="M 715 370 L 722 378 L 733 363" stroke="#fff" stroke-width="4" fill="none" stroke-linecap="round" stroke-linejoin="round"/>
<text x="760" y="378" font-size="25" fill="#4a4038">커버 분리 세탁 · 무게 한도 확인</text>
<circle cx="724" cy="446" r="18" fill="#E0A64E"/>
<text x="724" y="454" font-size="24" font-weight="700" fill="#fff" text-anchor="middle">!</text>
<text x="760" y="454" font-size="25" fill="#4a4038">한여름 직사광 과열은 커튼으로 조절</text>
<circle cx="724" cy="522" r="18" fill="#C0553E"/>
<path d="M 717 515 L 731 529 M 731 515 L 717 529" stroke="#fff" stroke-width="4" stroke-linecap="round"/>
<text x="760" y="530" font-size="25" fill="#4a4038">방충망만 있는 창은 흡착 불가</text>
<circle cx="724" cy="598" r="18" fill="#C0553E"/>
<path d="M 717 591 L 731 605 M 731 591 L 717 605" stroke="#fff" stroke-width="4" stroke-linecap="round"/>
<text x="760" y="606" font-size="25" fill="#4a4038">흡착판 점검 없이 오래 방치 금물</text>
</svg>