<svg xmlns="http://www.w3.org/2000/svg" viewBox="0 0 1200 760" width="1200" height="760" font-family="Noto Sans KR, sans-serif">
<rect width="1200" height="760" fill="#FBF8F2"/>
<text x="60" y="80" font-size="44" font-weight="700" fill="#4a4038">공간별로 이만큼 넉넉하게</text>
<text x="60" y="124" font-size="26" fill="#8a8378">실제 면적보다 30% 정도 큰 적용면적을 고릅니다</text>
<rect x="60" y="160" width="1080" height="530" rx="20" fill="#FFFFFF" stroke="#E6DFD2" stroke-width="2"/>
<text x="230" y="290" font-size="34" font-weight="700" fill="#4a4038" text-anchor="end">침실</text>
<rect x="260" y="230" width="177" height="46" rx="8" fill="#E6D8C3"/>
<text x="451" y="263" font-size="26" fill="#8a8378">실제 5평</text>
<rect x="260" y="286" width="248" height="46" rx="8" fill="#C08A5E"/>
<text x="522" y="319" font-size="26" font-weight="700" fill="#C08A5E">7평형 이상</text>
<text x="230" y="440" font-size="34" font-weight="700" fill="#4a4038" text-anchor="end">원룸</text>
<rect x="260" y="380" width="284" height="46" rx="8" fill="#E6D8C3"/>
<text x="558" y="413" font-size="26" fill="#8a8378">실제 8평</text>
<rect x="260" y="436" width="355" height="46" rx="8" fill="#C08A5E"/>
<text x="629" y="469" font-size="26" font-weight="700" fill="#C08A5E">10평형 이상</text>
<text x="230" y="590" font-size="34" font-weight="700" fill="#4a4038" text-anchor="end">거실</text>
<rect x="260" y="530" width="532" height="46" rx="8" fill="#E6D8C3"/>
<text x="806" y="563" font-size="26" fill="#8a8378">실제 15평</text>
<rect x="260" y="586" width="709" height="46" rx="8" fill="#C08A5E"/>
<text x="983" y="619" font-size="26" font-weight="700" fill="#C08A5E">20평형 이상</text>
<rect x="80" y="710" width="26" height="26" rx="5" fill="#E6D8C3"/><text x="118" y="732" font-size="24" fill="#4a4038">실제로 쓰는 공간</text>
<rect x="360" y="710" width="26" height="26" rx="5" fill="#C08A5E"/><text x="398" y="732" font-size="24" fill="#4a4038">권장 적용면적(약 1.3배)</text>
</svg>